<svg xmlns="http://www.w3.org/2000/svg" xmlns:xlink="http://www.w3.org/1999/xlink" width="500" zoomAndPan="magnify" viewBox="0 0 375 374.999991" height="500" preserveAspectRatio="xMidYMid meet" version="1.0"><defs><clipPath id="4b232a2f37"><path d="M 187.5 52 L 366 52 L 366 230.371094 L 187.5 230.371094 Z M 187.5 52 " clip-rule="nonzero"/></clipPath><clipPath id="fc754a3b9d"><path d="M 26.03125 174.4375 L 203.78125 174.4375 L 203.78125 352.1875 L 26.03125 352.1875 Z M 26.03125 174.4375 " clip-rule="nonzero"/></clipPath></defs><g clip-path="url(#4b232a2f37)"><path fill="#000000" d="M 308.71875 147.433594 C 316.90625 142.941406 324.839844 135.917969 331.847656 129.730469 C 334.648438 127.257812 337.304688 124.910156 339.871094 122.796875 L 362.726562 105.804688 C 362.917969 105.660156 363.132812 105.554688 363.363281 105.496094 C 363.597656 105.4375 363.835938 105.421875 364.074219 105.457031 C 364.3125 105.492188 364.535156 105.570312 364.742188 105.691406 C 364.953125 105.816406 365.128906 105.972656 365.273438 106.167969 C 365.414062 106.363281 365.515625 106.574219 365.574219 106.808594 C 365.632812 107.042969 365.644531 107.28125 365.609375 107.519531 C 365.574219 107.757812 365.492188 107.980469 365.367188 108.1875 C 365.242188 108.394531 365.085938 108.570312 364.890625 108.714844 L 342.164062 125.65625 C 339.707031 127.691406 337.085938 130.003906 334.320312 132.460938 C 327.171875 138.773438 319.074219 145.941406 310.539062 150.65625 C 310.167969 150.847656 309.816406 151.070312 309.484375 151.324219 C 309.148438 151.578125 308.839844 151.859375 308.554688 152.164062 C 308.269531 152.46875 308.015625 152.800781 307.785156 153.148438 C 307.558594 153.5 307.363281 153.867188 307.199219 154.253906 C 307.03125 154.636719 306.902344 155.03125 306.804688 155.441406 C 306.710938 155.847656 306.648438 156.257812 306.625 156.675781 C 306.597656 157.09375 306.609375 157.511719 306.65625 157.925781 C 306.703125 158.34375 306.785156 158.75 306.898438 159.152344 C 313.105469 178.824219 313.976562 201.621094 309.574219 228.859375 C 309.539062 229.078125 309.46875 229.277344 309.359375 229.46875 C 309.253906 229.65625 309.117188 229.824219 308.949219 229.964844 C 308.78125 230.105469 308.597656 230.210938 308.390625 230.285156 C 308.183594 230.355469 307.972656 230.390625 307.753906 230.390625 L 307.589844 230.390625 C 307.351562 230.351562 307.128906 230.269531 306.921875 230.140625 C 306.71875 230.015625 306.542969 229.855469 306.402344 229.65625 C 306.257812 229.460938 306.160156 229.246094 306.105469 229.007812 C 306.050781 228.773438 306.042969 228.535156 306.082031 228.296875 C 310.339844 201.585938 309.503906 179.421875 303.480469 160.226562 C 303.296875 159.628906 303.167969 159.019531 303.089844 158.398438 C 303.011719 157.777344 302.984375 157.15625 303.015625 156.53125 C 303.042969 155.90625 303.125 155.289062 303.257812 154.679688 C 303.394531 154.070312 303.582031 153.472656 303.816406 152.894531 C 304.054688 152.316406 304.339844 151.761719 304.671875 151.234375 C 305.003906 150.703125 305.378906 150.207031 305.796875 149.742188 C 306.214844 149.277344 306.667969 148.851562 307.160156 148.460938 C 307.648438 148.074219 308.171875 147.734375 308.71875 147.433594 Z M 227.53125 142.085938 C 232.445312 170.691406 233.90625 199.46875 231.914062 228.425781 C 231.898438 228.667969 231.929688 228.902344 232.007812 229.136719 C 232.082031 229.367188 232.203125 229.574219 232.363281 229.753906 C 232.523438 229.9375 232.714844 230.082031 232.933594 230.191406 C 233.152344 230.296875 233.382812 230.355469 233.625 230.371094 L 233.734375 230.371094 C 233.964844 230.371094 234.1875 230.328125 234.402344 230.246094 C 234.617188 230.160156 234.808594 230.042969 234.980469 229.882812 C 235.148438 229.726562 235.28125 229.542969 235.382812 229.335938 C 235.480469 229.128906 235.539062 228.910156 235.554688 228.679688 C 237.5625 199.449219 236.089844 170.398438 231.132812 141.523438 C 229.460938 129.039062 232.371094 119.449219 240.050781 112.246094 C 259.601562 94.953125 277.1875 75.851562 292.816406 54.945312 C 292.941406 54.75 293.027344 54.539062 293.070312 54.3125 C 293.117188 54.085938 293.117188 53.859375 293.074219 53.632812 C 293.03125 53.402344 292.949219 53.191406 292.824219 52.996094 C 292.703125 52.800781 292.546875 52.632812 292.359375 52.496094 C 292.175781 52.359375 291.96875 52.261719 291.746094 52.203125 C 291.519531 52.144531 291.292969 52.128906 291.0625 52.15625 C 290.835938 52.1875 290.617188 52.253906 290.414062 52.367188 C 290.210938 52.476562 290.035156 52.621094 289.886719 52.800781 C 274.378906 73.519531 256.917969 92.4375 237.5 109.550781 C 229.023438 117.558594 225.710938 128.476562 227.53125 142.085938 Z M 291.359375 94.523438 L 306.316406 78.582031 C 306.667969 78.214844 307.101562 78.027344 307.609375 78.019531 C 308.128906 78.003906 308.570312 78.179688 308.9375 78.546875 L 325.132812 94.921875 C 325.300781 95.09375 325.433594 95.289062 325.523438 95.511719 C 325.617188 95.734375 325.660156 95.964844 325.660156 96.207031 C 325.660156 96.445312 325.617188 96.675781 325.523438 96.898438 C 325.433594 97.121094 325.300781 97.316406 325.132812 97.488281 L 309.738281 112.84375 C 308.636719 113.957031 307.785156 115.234375 307.183594 116.679688 C 306.582031 118.125 306.273438 119.632812 306.261719 121.195312 C 305.9375 134.117188 299.660156 138.9375 299.386719 139.136719 C 296.457031 141.640625 293.128906 143.363281 289.394531 144.304688 C 290.875 146.039062 292.035156 147.96875 292.878906 150.085938 C 293.726562 152.203125 294.207031 154.402344 294.328125 156.679688 C 294.328125 156.933594 295.417969 164.792969 286.464844 174.164062 C 285.386719 175.277344 284.550781 176.550781 283.964844 177.984375 C 283.375 179.417969 283.074219 180.910156 283.0625 182.460938 L 283.0625 228.550781 C 283.0625 228.792969 283.019531 229.023438 282.925781 229.246094 C 282.832031 229.472656 282.703125 229.667969 282.53125 229.839844 C 282.359375 230.007812 282.164062 230.140625 281.941406 230.234375 C 281.71875 230.324219 281.484375 230.371094 281.246094 230.371094 L 258.9375 230.371094 C 258.695312 230.371094 258.464844 230.324219 258.238281 230.234375 C 258.015625 230.140625 257.820312 230.007812 257.648438 229.839844 C 257.480469 229.667969 257.347656 229.472656 257.253906 229.246094 C 257.164062 229.023438 257.117188 228.792969 257.117188 228.550781 L 257.117188 182.445312 C 257.105469 180.894531 256.804688 179.402344 256.21875 177.964844 C 255.628906 176.53125 254.792969 175.257812 253.714844 174.148438 C 244.796875 164.777344 245.835938 156.933594 245.890625 156.605469 C 246.707031 149.035156 249.527344 143.867188 254.097656 141.25 C 260.320312 137.753906 267.816406 140.246094 270.144531 141.25 C 272.039062 140.613281 273.980469 140.199219 275.96875 140.011719 C 274 137.921875 272.453125 135.554688 271.328125 132.914062 C 269.054688 131.804688 262.101562 127.875 260.410156 120.832031 C 259.0625 115.738281 260.683594 110.28125 265.175781 104.820312 C 265.324219 104.601562 270.144531 98.324219 283.101562 97.996094 C 284.648438 97.976562 286.140625 97.664062 287.566406 97.0625 C 288.996094 96.460938 290.261719 95.613281 291.359375 94.523438 Z M 284.628906 145.089844 C 279.171875 141.832031 271.78125 144.433594 270.871094 144.777344 C 268.8125 146.003906 267.292969 147.714844 266.324219 149.910156 C 266.183594 150.25 265.960938 150.523438 265.65625 150.726562 C 265.351562 150.933594 265.015625 151.035156 264.648438 151.039062 C 264.410156 151.039062 264.179688 151 263.957031 150.910156 C 263.730469 150.820312 263.527344 150.6875 263.351562 150.515625 C 263.171875 150.34375 263.039062 150.140625 262.945312 149.914062 C 262.851562 149.683594 262.804688 149.449219 262.804688 149.199219 C 262.808594 148.953125 262.859375 148.71875 262.957031 148.492188 C 263.722656 146.65625 264.832031 145.058594 266.289062 143.703125 C 264.566406 143.160156 262.808594 142.945312 261.007812 143.066406 C 259.210938 143.183594 257.492188 143.628906 255.859375 144.394531 C 252.332031 146.378906 250.203125 150.636719 249.492188 157.023438 C 249.492188 157.351562 248.746094 163.628906 256.351562 171.582031 C 257.75 173.035156 258.832031 174.695312 259.59375 176.5625 C 260.355469 178.429688 260.742188 180.371094 260.757812 182.390625 L 260.757812 226.730469 L 279.441406 226.730469 L 279.441406 182.460938 C 279.46875 180.441406 279.867188 178.496094 280.644531 176.632812 C 281.421875 174.765625 282.519531 173.113281 283.9375 171.671875 C 291.5625 163.664062 290.871094 157.386719 290.832031 157.117188 C 290.085938 151.148438 288.03125 147.125 284.628906 145.089844 Z M 293.945312 97.085938 C 292.511719 98.507812 290.863281 99.605469 289.003906 100.386719 C 287.144531 101.167969 285.207031 101.570312 283.191406 101.601562 C 272.144531 101.875 268.199219 106.804688 268.035156 107.058594 C 264.285156 111.734375 262.886719 116.03125 263.847656 119.796875 C 265.378906 125.929688 272.472656 129.332031 273.347656 129.730469 C 275.671875 130.328125 277.953125 130.195312 280.1875 129.332031 C 280.414062 129.226562 280.648438 129.167969 280.894531 129.160156 C 281.144531 129.148438 281.382812 129.1875 281.613281 129.277344 C 281.84375 129.367188 282.046875 129.496094 282.226562 129.667969 C 282.40625 129.839844 282.542969 130.039062 282.640625 130.265625 C 282.734375 130.496094 282.785156 130.730469 282.78125 130.980469 C 282.78125 131.226562 282.734375 131.464844 282.636719 131.691406 C 282.539062 131.917969 282.402344 132.117188 282.222656 132.289062 C 282.042969 132.460938 281.839844 132.589844 281.609375 132.679688 C 279.890625 133.390625 278.101562 133.742188 276.242188 133.734375 L 275.875 133.734375 C 276.703125 135.332031 277.796875 136.726562 279.148438 137.914062 C 280.503906 139.097656 282.027344 140 283.71875 140.613281 C 287.632812 141.703125 292.144531 140.210938 297.164062 136.191406 C 297.421875 135.988281 302.351562 132.042969 302.625 121.03125 C 302.660156 119.019531 303.070312 117.082031 303.847656 115.222656 C 304.628906 113.367188 305.726562 111.71875 307.136719 110.28125 L 321.273438 96.214844 L 307.683594 82.441406 L 294 96.996094 Z M 218.304688 105.492188 C 218.476562 105.667969 218.671875 105.800781 218.898438 105.890625 C 219.121094 105.984375 219.355469 106.03125 219.597656 106.03125 C 219.839844 106.03125 220.074219 105.984375 220.296875 105.890625 C 220.519531 105.800781 220.71875 105.667969 220.890625 105.492188 C 221.058594 105.324219 221.1875 105.128906 221.28125 104.90625 C 221.371094 104.683594 221.417969 104.453125 221.417969 104.210938 C 221.417969 103.972656 221.371094 103.738281 221.28125 103.515625 C 221.1875 103.296875 221.058594 103.097656 220.890625 102.929688 L 206.113281 88.152344 C 205.945312 87.980469 205.746094 87.847656 205.523438 87.753906 C 205.296875 87.660156 205.066406 87.617188 204.824219 87.617188 C 204.578125 87.617188 204.347656 87.660156 204.121094 87.753906 C 203.898438 87.847656 203.703125 87.980469 203.53125 88.152344 C 203.359375 88.324219 203.230469 88.519531 203.140625 88.742188 C 203.046875 88.964844 203 89.195312 203 89.4375 C 203 89.675781 203.046875 89.90625 203.140625 90.128906 C 203.230469 90.351562 203.359375 90.546875 203.53125 90.71875 Z M 189.519531 115.210938 L 210.410156 115.210938 C 210.648438 115.210938 210.882812 115.164062 211.105469 115.070312 C 211.328125 114.980469 211.523438 114.847656 211.695312 114.675781 C 211.867188 114.507812 211.996094 114.308594 212.089844 114.085938 C 212.183594 113.863281 212.226562 113.632812 212.226562 113.390625 C 212.226562 113.148438 212.183594 112.917969 212.089844 112.695312 C 211.996094 112.472656 211.867188 112.273438 211.695312 112.105469 C 211.523438 111.933594 211.328125 111.800781 211.105469 111.710938 C 210.882812 111.617188 210.648438 111.570312 210.410156 111.570312 L 189.519531 111.570312 C 189.277344 111.570312 189.046875 111.617188 188.824219 111.710938 C 188.601562 111.800781 188.402344 111.933594 188.234375 112.105469 C 188.0625 112.273438 187.929688 112.472656 187.839844 112.695312 C 187.746094 112.917969 187.699219 113.148438 187.699219 113.390625 C 187.699219 113.632812 187.746094 113.863281 187.839844 114.085938 C 187.929688 114.308594 188.0625 114.507812 188.234375 114.675781 C 188.402344 114.847656 188.601562 114.980469 188.824219 115.070312 C 189.046875 115.164062 189.277344 115.210938 189.519531 115.210938 Z M 228.785156 96.832031 C 229.027344 96.832031 229.257812 96.785156 229.480469 96.695312 C 229.707031 96.601562 229.902344 96.46875 230.074219 96.300781 C 230.242188 96.128906 230.375 95.933594 230.46875 95.710938 C 230.558594 95.488281 230.605469 95.253906 230.605469 95.011719 L 230.605469 74.125 C 230.605469 73.882812 230.558594 73.652344 230.46875 73.429688 C 230.375 73.207031 230.242188 73.007812 230.074219 72.839844 C 229.902344 72.667969 229.707031 72.535156 229.480469 72.445312 C 229.257812 72.351562 229.027344 72.304688 228.785156 72.304688 C 228.542969 72.304688 228.3125 72.351562 228.089844 72.445312 C 227.867188 72.535156 227.671875 72.667969 227.5 72.839844 C 227.328125 73.007812 227.199219 73.207031 227.105469 73.429688 C 227.011719 73.652344 226.964844 73.882812 226.964844 74.125 L 226.964844 95.011719 C 226.964844 95.253906 227.011719 95.488281 227.105469 95.710938 C 227.199219 95.933594 227.328125 96.128906 227.5 96.300781 C 227.671875 96.46875 227.867188 96.601562 228.089844 96.695312 C 228.3125 96.785156 228.542969 96.832031 228.785156 96.832031 Z M 273.019531 213.996094 C 272.777344 213.996094 272.546875 214.042969 272.324219 214.132812 C 272.101562 214.226562 271.902344 214.359375 271.734375 214.527344 C 271.5625 214.699219 271.429688 214.894531 271.339844 215.117188 C 271.246094 215.339844 271.199219 215.574219 271.199219 215.816406 L 271.199219 219.597656 C 271.199219 219.839844 271.246094 220.074219 271.339844 220.296875 C 271.429688 220.519531 271.5625 220.714844 271.734375 220.886719 C 271.902344 221.054688 272.101562 221.1875 272.324219 221.28125 C 272.546875 221.371094 272.777344 221.417969 273.019531 221.417969 C 273.261719 221.417969 273.492188 221.371094 273.714844 221.28125 C 273.9375 221.1875 274.136719 221.054688 274.304688 220.886719 C 274.476562 220.714844 274.609375 220.519531 274.699219 220.296875 C 274.792969 220.074219 274.839844 219.839844 274.839844 219.597656 L 274.839844 215.816406 C 274.839844 215.574219 274.792969 215.339844 274.699219 215.117188 C 274.609375 214.894531 274.476562 214.699219 274.304688 214.527344 C 274.136719 214.355469 273.9375 214.226562 273.714844 214.132812 C 273.492188 214.042969 273.261719 213.996094 273.019531 213.996094 Z M 273.019531 196.109375 C 272.777344 196.109375 272.546875 196.15625 272.324219 196.246094 C 272.101562 196.339844 271.902344 196.472656 271.734375 196.640625 C 271.5625 196.8125 271.429688 197.007812 271.339844 197.230469 C 271.246094 197.453125 271.199219 197.6875 271.199219 197.929688 L 271.199219 208.992188 C 271.199219 209.234375 271.246094 209.464844 271.339844 209.6875 C 271.429688 209.910156 271.5625 210.105469 271.734375 210.277344 C 271.902344 210.449219 272.101562 210.578125 272.324219 210.671875 C 272.546875 210.765625 272.777344 210.8125 273.019531 210.8125 C 273.261719 210.8125 273.492188 210.765625 273.714844 210.671875 C 273.9375 210.578125 274.136719 210.449219 274.304688 210.277344 C 274.476562 210.105469 274.609375 209.910156 274.699219 209.6875 C 274.792969 209.464844 274.839844 209.234375 274.839844 208.992188 L 274.839844 197.929688 C 274.839844 197.6875 274.792969 197.453125 274.699219 197.230469 C 274.609375 197.007812 274.476562 196.8125 274.304688 196.640625 C 274.136719 196.472656 273.9375 196.339844 273.714844 196.246094 C 273.492188 196.15625 273.261719 196.109375 273.019531 196.109375 Z M 273.019531 196.109375 " fill-opacity="1" fill-rule="nonzero"/></g><g clip-path="url(#fc754a3b9d)"><path fill="#000000" d="M 140.101562 296.339844 C 141.097656 296.632812 142.148438 296.792969 143.238281 296.792969 C 149.363281 296.792969 154.34375 291.800781 154.34375 285.660156 C 154.34375 282.910156 153.34375 280.390625 151.6875 278.445312 C 152.410156 277.628906 153.238281 276.707031 154.21875 275.617188 L 166.761719 261.6875 L 174.035156 259.09375 C 179.023438 257.308594 180.789062 253.441406 180.773438 250.414062 C 180.765625 248.902344 180.351562 247.503906 179.625 246.347656 L 182.902344 245.179688 C 188.546875 243.164062 190.539062 238.804688 190.523438 235.394531 C 190.515625 233.5625 189.976562 231.882812 189.03125 230.53125 L 189.316406 230.4375 C 195.421875 228.253906 197.074219 222.757812 196.023438 218.574219 C 195.726562 217.386719 195.238281 216.347656 194.605469 215.488281 C 202.507812 212.332031 204.761719 205.699219 203.417969 200.597656 C 202.070312 195.476562 197.382812 192.5625 192.277344 193.667969 C 192.257812 193.671875 192.238281 193.675781 192.21875 193.679688 L 141.257812 206.136719 C 139.4375 202.476562 135.664062 199.953125 131.3125 199.953125 C 125.1875 199.953125 120.207031 204.949219 120.207031 211.089844 C 120.207031 212.425781 120.445312 213.710938 120.878906 214.898438 L 98.007812 230.660156 C 96.230469 229.441406 94.078125 228.730469 91.765625 228.730469 C 85.640625 228.730469 80.660156 233.722656 80.660156 239.863281 C 80.660156 243.753906 82.664062 247.1875 85.691406 249.175781 L 77.359375 276.9375 C 77.019531 278.0625 76.644531 279.117188 76.230469 280.136719 C 74.996094 279.660156 73.65625 279.394531 72.253906 279.394531 C 66.128906 279.394531 61.148438 284.390625 61.148438 290.527344 C 61.148438 292.855469 61.863281 295.019531 63.089844 296.808594 L 34.164062 325.804688 C 33.332031 326.636719 33.332031 327.984375 34.164062 328.816406 C 34.578125 329.234375 35.121094 329.441406 35.664062 329.441406 C 36.207031 329.441406 36.75 329.234375 37.167969 328.816406 L 66.113281 299.800781 C 67.871094 300.976562 69.984375 301.664062 72.253906 301.664062 C 78.378906 301.664062 83.359375 296.667969 83.359375 290.527344 C 83.359375 287.347656 82.019531 284.476562 79.878906 282.445312 C 80.460938 281.089844 80.972656 279.675781 81.429688 278.164062 L 89.644531 250.789062 C 90.332031 250.925781 91.039062 250.996094 91.765625 250.996094 C 97.890625 250.996094 102.871094 246.003906 102.871094 239.863281 C 102.871094 237.601562 102.195312 235.5 101.035156 233.742188 L 123.078125 218.550781 C 125.113281 220.804688 128.050781 222.222656 131.3125 222.222656 C 137.4375 222.222656 142.417969 217.226562 142.417969 211.085938 C 142.417969 210.804688 142.402344 210.523438 142.382812 210.246094 L 193.195312 197.824219 C 196.753906 197.070312 198.714844 199.429688 199.308594 201.683594 C 200.269531 205.328125 198.320312 209.917969 191.808594 211.96875 L 143.082031 227.296875 C 140.253906 228.1875 137.988281 229.445312 135.742188 231.382812 L 121.09375 244.003906 C 116.398438 247.683594 112.25 254.386719 117.957031 265.730469 C 115.085938 266.65625 111.996094 267.121094 108.5 267.027344 C 107.332031 266.996094 106.351562 267.917969 106.316406 269.09375 C 106.285156 270.269531 107.210938 271.25 108.382812 271.285156 C 108.730469 271.292969 109.070312 271.296875 109.410156 271.296875 C 121.535156 271.296875 129.410156 265.210938 138.371094 257.28125 L 154.144531 243.332031 C 157.664062 240.222656 163.117188 240.554688 166.304688 244.074219 C 169.332031 247.417969 169.367188 252.441406 166.382812 255.753906 L 151.0625 272.761719 C 150.007812 273.933594 149.128906 274.917969 148.359375 275.785156 C 146.828125 274.984375 145.085938 274.527344 143.238281 274.527344 C 137.113281 274.527344 132.132812 279.519531 132.132812 285.660156 C 132.132812 289.183594 133.773438 292.328125 136.332031 294.367188 C 135.800781 295.453125 135.226562 296.625 134.578125 297.921875 C 129.046875 308.992188 121.195312 316.675781 111.875 320.140625 C 109.375 321.066406 107.136719 322.160156 105.058594 323.460938 C 103.15625 321.925781 100.742188 321.003906 98.113281 321.003906 C 91.988281 321.003906 87.007812 326 87.007812 332.136719 C 87.007812 334.4375 87.707031 336.578125 88.90625 338.355469 L 78.761719 348.523438 C 77.933594 349.355469 77.933594 350.703125 78.761719 351.535156 C 79.175781 351.953125 79.722656 352.160156 80.265625 352.160156 C 80.808594 352.160156 81.351562 351.953125 81.765625 351.535156 L 91.910156 341.367188 C 93.683594 342.570312 95.816406 343.269531 98.113281 343.269531 C 104.238281 343.269531 109.21875 338.277344 109.21875 332.136719 C 109.21875 330.1875 108.714844 328.351562 107.828125 326.753906 C 109.515625 325.746094 111.335938 324.882812 113.351562 324.132812 C 123.703125 320.289062 132.355469 311.882812 138.375 299.832031 C 139.011719 298.558594 139.578125 297.40625 140.101562 296.339844 Z M 72.253906 297.402344 C 68.472656 297.402344 65.398438 294.320312 65.398438 290.53125 C 65.398438 286.738281 68.472656 283.65625 72.253906 283.65625 C 76.035156 283.65625 79.109375 286.738281 79.109375 290.53125 C 79.109375 294.320312 76.035156 297.402344 72.253906 297.402344 Z M 91.765625 246.738281 C 87.984375 246.738281 84.910156 243.652344 84.910156 239.863281 C 84.910156 236.074219 87.984375 232.988281 91.765625 232.988281 C 95.546875 232.988281 98.621094 236.074219 98.621094 239.863281 C 98.621094 243.652344 95.546875 246.738281 91.765625 246.738281 Z M 131.3125 217.960938 C 127.53125 217.960938 124.457031 214.878906 124.457031 211.089844 C 124.457031 207.296875 127.53125 204.214844 131.3125 204.214844 C 135.09375 204.214844 138.167969 207.296875 138.167969 211.089844 C 138.167969 214.878906 135.09375 217.960938 131.3125 217.960938 Z M 172.609375 255.082031 L 171.644531 255.425781 C 172.621094 253.335938 173.003906 251.042969 172.796875 248.785156 L 175.320312 247.886719 C 176.058594 248.398438 176.519531 249.332031 176.523438 250.433594 C 176.535156 252.464844 175.070312 254.199219 172.609375 255.082031 Z M 137.832031 243.640625 C 136.722656 244.023438 136.128906 245.234375 136.511719 246.347656 C 136.8125 247.230469 137.636719 247.789062 138.519531 247.789062 C 138.75 247.789062 138.980469 247.75 139.210938 247.671875 L 145.113281 245.640625 L 135.5625 254.085938 C 130.816406 258.285156 126.570312 261.8125 121.902344 264.121094 C 116.839844 254.367188 120.476562 249.882812 123.746094 247.332031 C 123.773438 247.3125 123.800781 247.289062 123.828125 247.265625 L 138.511719 234.613281 C 140.300781 233.070312 142.105469 232.070312 144.355469 231.359375 L 189.609375 217.125 C 190.730469 217.042969 191.582031 218.335938 191.902344 219.613281 C 192.472656 221.890625 191.765625 225.039062 187.914062 226.414062 Z M 165.945312 238.476562 L 184.589844 232.0625 C 185.621094 232.707031 186.265625 233.953125 186.273438 235.417969 C 186.285156 237.941406 184.492188 240.089844 181.476562 241.167969 L 171.707031 244.652344 C 171.152344 243.425781 170.402344 242.261719 169.453125 241.210938 C 168.421875 240.074219 167.230469 239.160156 165.945312 238.476562 Z M 98.113281 339.011719 C 94.332031 339.011719 91.257812 335.929688 91.257812 332.136719 C 91.257812 328.347656 94.332031 325.261719 98.113281 325.261719 C 101.894531 325.261719 104.96875 328.347656 104.96875 332.136719 C 104.96875 335.929688 101.894531 339.011719 98.113281 339.011719 Z M 143.238281 278.785156 C 147.019531 278.785156 150.09375 281.871094 150.09375 285.660156 C 150.09375 289.449219 147.019531 292.535156 143.238281 292.535156 C 139.457031 292.535156 136.382812 289.449219 136.382812 285.660156 C 136.382812 281.871094 139.457031 278.785156 143.238281 278.785156 Z M 137.074219 194.105469 L 141.679688 182.976562 C 141.933594 182.367188 142.453125 181.90625 143.09375 181.734375 C 143.730469 181.566406 144.410156 181.699219 144.933594 182.105469 L 149.589844 185.6875 L 153.703125 175.746094 C 154.152344 174.660156 155.398438 174.144531 156.480469 174.59375 C 157.5625 175.046875 158.078125 176.292969 157.628906 177.378906 L 152.453125 189.886719 C 152.199219 190.496094 151.675781 190.957031 151.039062 191.125 C 150.402344 191.296875 149.71875 191.160156 149.195312 190.757812 L 144.542969 187.171875 L 141 195.738281 C 140.660156 196.558594 139.867188 197.050781 139.035156 197.050781 C 138.761719 197.050781 138.488281 197 138.222656 196.886719 C 137.136719 196.4375 136.625 195.191406 137.074219 194.105469 Z M 73.859375 200.085938 C 73.007812 199.277344 72.96875 197.929688 73.773438 197.074219 C 74.582031 196.21875 75.925781 196.183594 76.777344 196.988281 L 83.714844 203.5625 C 84.566406 204.371094 84.605469 205.71875 83.796875 206.574219 C 83.378906 207.015625 82.816406 207.238281 82.253906 207.238281 C 81.730469 207.238281 81.207031 207.046875 80.796875 206.65625 Z M 163.742188 350.5625 C 163.496094 351.523438 162.632812 352.160156 161.683594 352.160156 C 161.511719 352.160156 161.332031 352.140625 161.15625 352.09375 L 140.566406 346.78125 C 139.800781 346.585938 139.207031 345.976562 139.027344 345.203125 C 138.847656 344.433594 139.109375 343.625 139.710938 343.105469 L 146.15625 337.546875 L 133.425781 334.746094 C 132.28125 334.492188 131.554688 333.355469 131.808594 332.207031 C 132.058594 331.058594 133.191406 330.332031 134.335938 330.585938 L 151.222656 334.300781 C 152.007812 334.472656 152.628906 335.078125 152.824219 335.859375 C 153.023438 336.640625 152.761719 337.46875 152.152344 337.996094 L 145.566406 343.675781 L 162.214844 347.96875 C 163.351562 348.261719 164.035156 349.421875 163.742188 350.5625 Z M 201.066406 312.96875 C 201.9375 313.757812 202.003906 315.105469 201.21875 315.976562 C 200.800781 316.441406 200.222656 316.679688 199.640625 316.679688 C 199.132812 316.679688 198.625 316.5 198.21875 316.128906 L 185.328125 304.449219 L 176.761719 308.148438 C 176.195312 308.394531 175.550781 308.378906 174.992188 308.109375 C 174.4375 307.839844 174.027344 307.34375 173.867188 306.746094 L 171.488281 297.847656 L 163.074219 298.359375 C 161.90625 298.433594 160.894531 297.539062 160.824219 296.363281 C 160.753906 295.1875 161.644531 294.179688 162.816406 294.109375 L 172.960938 293.492188 C 173.96875 293.425781 174.878906 294.085938 175.140625 295.066406 L 177.335938 303.261719 L 184.898438 299.996094 C 185.660156 299.667969 186.546875 299.8125 187.164062 300.371094 Z M 39.824219 277.246094 L 27.34375 272.070312 C 26.257812 271.621094 25.742188 270.375 26.191406 269.289062 C 26.640625 268.203125 27.882812 267.683594 28.96875 268.132812 L 38.890625 272.25 L 39.652344 266.414062 C 39.738281 265.757812 40.125 265.179688 40.695312 264.847656 C 41.269531 264.515625 41.960938 264.472656 42.570312 264.722656 L 57.550781 270.933594 C 58.636719 271.382812 59.152344 272.628906 58.703125 273.714844 C 58.253906 274.804688 57.011719 275.320312 55.929688 274.871094 L 43.503906 269.71875 L 42.742188 275.554688 C 42.65625 276.210938 42.273438 276.789062 41.699219 277.121094 C 41.371094 277.3125 41.003906 277.40625 40.636719 277.40625 C 40.363281 277.40625 40.085938 277.355469 39.824219 277.246094 Z M 95.210938 177.859375 C 94.496094 176.925781 94.671875 175.585938 95.605469 174.871094 C 96.535156 174.15625 97.871094 174.332031 98.582031 175.265625 L 106.800781 186.011719 C 107.203125 186.539062 107.335938 187.222656 107.164062 187.859375 C 106.992188 188.5 106.535156 189.023438 105.925781 189.277344 L 100.503906 191.523438 L 106.128906 198.882812 C 106.84375 199.816406 106.667969 201.152344 105.734375 201.871094 C 105.347656 202.164062 104.894531 202.308594 104.445312 202.308594 C 103.804688 202.308594 103.175781 202.023438 102.753906 201.476562 L 95.445312 191.914062 C 95.042969 191.386719 94.910156 190.703125 95.082031 190.066406 C 95.25 189.425781 95.710938 188.902344 96.320312 188.648438 L 101.742188 186.402344 L 95.210938 177.855469 Z M 32.148438 203.585938 C 31.40625 202.675781 31.539062 201.335938 32.449219 200.589844 C 33.355469 199.84375 34.695312 199.976562 35.4375 200.886719 L 46.445312 214.367188 L 55.46875 211.992188 C 56.066406 211.832031 56.699219 211.945312 57.207031 212.292969 C 57.71875 212.644531 58.050781 213.195312 58.117188 213.8125 L 59.148438 222.964844 L 67.546875 223.71875 C 68.714844 223.824219 69.578125 224.855469 69.472656 226.027344 C 69.375 227.136719 68.445312 227.96875 67.359375 227.96875 C 67.292969 227.96875 67.230469 227.964844 67.167969 227.960938 L 57.042969 227.050781 C 56.035156 226.960938 55.234375 226.175781 55.121094 225.167969 L 54.171875 216.734375 L 46.207031 218.835938 C 45.40625 219.046875 44.550781 218.769531 44.023438 218.125 Z M 32.148438 203.585938 " fill-opacity="1" fill-rule="nonzero"/></g></svg>